# xmcd
# Track frame offsets:
# 150
# 17885
# 33541
# 49726
# 65941
# 87203
# 100401
# 116986
# 134296
# 152742
# 168804
# 185093
# 201656
# 218282
# 237349
# 257179
# 273059
# 286184
# 306546
# 327710
#
# Disc length: 4570 seconds
# Revision: 0
# Processed by: cddbd v1.5.1PL0 Copyright (c) Steve Scherf et al.
# Submitted via: VisiTrax 2.9.10.228 - For more info visit www.synapsa.com
#
DISCID=3611d814
DTITLE=Shania Twain - Come on over
DYEAR=1900
DGENRE=
TTITLE0=Man I feel like a woman
TTITLE1=I'm holding on to love
TTITLE2=Love gets me everytime
TTITLE3=Don't be stupid
TTITLE4=From the moment on
TTITLE5=Come on over
TTITLE6=When
TTITLE7=Whatever you do don't
TTITLE8=If you wanna touch her
TTITLE9=You're still the one
TTITLE10=Honey I'm home
TTITLE11=That don't impress me much
TTITLE12=Black eyed blue tears
TTITLE13=I won't leave you lonely
TTITLE14=Rock this country
TTITLE15=You've got a way
TTITLE16=Up
TTITLE17=I'm gonna getcha good
TTITLE18=Forever and for always
TTITLE19=Ka-ching
EXTD=
EXTT0=
EXTT1=
EXTT2=
EXTT3=
EXTT4=
EXTT5=
EXTT6=
EXTT7=
EXTT8=
EXTT9=
EXTT10=
EXTT11=
EXTT12=
EXTT13=
EXTT14=
EXTT15=
EXTT16=
EXTT17=
EXTT18=
EXTT19=
PLAYORDER=
